<svg version="1.1" id="Layer_1" xmlns="http://www.w3.org/2000/svg" xmlns:xlink="http://www.w3.org/1999/xlink" x="0px" y="0px"
	 width="100%" viewBox="0 0 612 612" enable-background="new 0 0 612 612" xml:space="preserve">
<path fill="#FFFFFF" opacity="1.000000" stroke="none" 
	d="
M395.000000,613.000000 
	C263.333344,613.000000 132.166718,613.000000 1.000053,613.000000 
	C1.000035,409.000061 1.000035,205.000122 1.000018,1.000135 
	C204.999893,1.000090 408.999786,1.000090 612.999756,1.000045 
	C612.999878,204.999863 612.999878,408.999725 612.999939,612.999756 
	C540.500000,613.000000 468.000000,613.000000 395.000000,613.000000 
M385.924744,414.038696 
	C395.173401,414.038696 404.422028,414.038696 413.848785,414.038696 
	C413.848785,393.450439 413.848785,373.425964 413.848785,353.025452 
	C393.390198,353.025452 373.159027,353.025452 352.952301,352.088257 
	C352.952301,342.208710 352.952301,332.329163 352.952301,322.540497 
	C342.327057,322.540497 332.453217,322.540497 322.476440,322.540497 
	C322.476440,332.774963 322.476440,342.653320 322.476440,352.925476 
	C332.845062,352.925476 342.936462,352.925476 352.940277,353.868591 
	C352.906555,363.540375 352.872864,373.212128 352.041351,383.331573 
	C342.270386,383.331573 332.499390,383.331573 322.484711,383.331573 
	C322.484711,393.903412 322.484711,403.786987 322.484711,413.846008 
	C332.696594,413.846008 342.602173,413.846008 352.735992,413.846008 
	C352.735992,403.317474 352.735992,393.048981 353.409180,383.315094 
	C354.255707,383.270844 355.102234,383.226593 356.418640,383.452545 
	C357.295959,383.361725 358.173279,383.270905 359.810211,383.411224 
	C360.856812,383.334351 361.903442,383.257477 363.703461,383.460632 
	C367.819336,383.368622 371.935242,383.276581 376.847260,383.421631 
	C378.926788,383.532104 381.006317,383.642609 383.820679,383.792145 
	C383.820679,392.858307 383.820679,401.424957 383.533813,410.650024 
	C384.023712,411.718781 384.513641,412.787567 385.924744,414.038696 
M257.499939,291.786743 
	C268.765381,291.786743 280.030853,291.786743 291.396851,291.786743 
	C291.396851,260.822784 291.396851,230.500732 291.396851,200.183167 
	C260.753174,200.183167 230.523773,200.183167 200.265594,200.183167 
	C200.265594,230.779816 200.265594,261.113770 200.265594,291.786713 
	C219.260513,291.786713 237.880219,291.786713 257.499939,291.786743 
M414.109955,202.681580 
	C414.403595,198.900558 411.555573,199.950912 409.659363,199.948364 
	C381.861572,199.911072 354.063721,199.933029 326.265900,199.964066 
	C325.014130,199.965469 323.762634,200.186661 322.529480,200.303726 
	C322.529480,230.909775 322.529480,261.121460 322.529480,291.406006 
	C353.187836,291.406006 383.517334,291.406006 414.112579,291.406006 
	C414.112579,261.897797 414.112579,232.775986 414.109955,202.681580 
M290.160553,414.027161 
	C290.708282,412.519196 291.728821,411.012787 291.733704,409.503113 
	C291.823700,381.699249 291.794983,353.894989 291.776459,326.090820 
	C291.775726,324.971527 291.628601,323.852295 291.537964,322.566956 
	C260.867798,322.566956 230.513947,322.566956 200.161621,322.566956 
	C200.161621,353.156067 200.161621,383.389008 200.161621,414.059357 
	C230.031448,414.059357 259.624329,414.059357 290.160553,414.027161 
M445.141846,230.021072 
	C455.033264,230.021072 464.924683,230.021072 475.061096,230.021072 
	C475.061096,199.777237 475.061096,169.433121 475.061096,138.987518 
	C444.507446,138.987518 414.264496,138.987518 383.757263,138.987518 
	C383.757263,149.102829 383.757263,158.990982 383.757263,169.367279 
	C404.127960,169.367279 424.193481,169.367279 444.838348,169.367279 
	C444.838348,189.612442 444.838348,209.373093 445.141846,230.021072 
M184.508469,169.277924 
	C199.749817,169.277924 214.991180,169.277924 230.284271,169.277924 
	C230.284271,158.710403 230.284271,148.946518 230.284271,139.015961 
	C199.741440,139.015961 169.488571,139.015961 139.023071,139.015961 
	C139.023071,169.635193 139.023071,200.000961 139.023071,230.389755 
	C149.165070,230.389755 158.935760,230.389755 169.384094,230.389755 
	C169.384094,209.928894 169.384094,189.732849 169.384094,169.277985 
	C174.546799,169.277985 179.030273,169.277985 184.508469,169.277924 
M438.499969,475.210846 
	C450.608795,475.210846 462.717651,475.210846 474.913513,475.210846 
	C474.913513,444.455078 474.913513,414.124268 474.913513,383.640015 
	C464.787354,383.640015 455.033234,383.640015 444.756836,383.640015 
	C444.756836,403.954590 444.756836,424.012604 444.756836,444.618805 
	C424.168091,444.618805 404.093201,444.618805 383.780670,444.618805 
	C383.780670,455.072693 383.780670,464.967682 383.780670,475.210876 
	C401.908295,475.210876 419.704132,475.210876 438.499969,475.210846 
M169.211761,403.500244 
	C169.211761,396.912048 169.211761,390.323853 169.211761,383.624756 
	C158.741425,383.624756 148.979187,383.624756 139.075775,383.624756 
	C139.075775,414.243286 139.075775,444.598450 139.075775,474.927246 
	C169.663254,474.927246 199.888138,474.927246 230.123489,474.927246 
	C230.123489,464.734985 230.123489,454.867126 230.123489,444.471558 
	C209.620346,444.471558 189.558212,444.471558 169.211807,444.471558 
	C169.211807,430.789703 169.211807,417.644958 169.211761,403.500244 
z"/>
<path fill="#3F3F3D" opacity="1.000000" stroke="none" 
	d="
M256.999939,291.786743 
	C237.880219,291.786713 219.260513,291.786713 200.265594,291.786713 
	C200.265594,261.113770 200.265594,230.779816 200.265594,200.183167 
	C230.523773,200.183167 260.753174,200.183167 291.396851,200.183167 
	C291.396851,230.500732 291.396851,260.822784 291.396851,291.786743 
	C280.030853,291.786743 268.765381,291.786743 256.999939,291.786743 
M230.597626,259.435852 
	C230.927902,259.943329 231.254593,260.891479 231.588959,260.894196 
	C241.312012,260.973450 251.035828,260.958282 260.656738,260.958282 
	C260.656738,250.550171 260.656738,240.703415 260.656738,230.914124 
	C250.531479,230.914124 240.802109,230.914124 230.523209,230.914124 
	C230.523209,240.283142 230.523209,249.364517 230.597626,259.435852 
z"/>
<path fill="#3F3F3D" opacity="1.000000" stroke="none" 
	d="
M414.111267,203.167877 
	C414.112579,232.775986 414.112579,261.897797 414.112579,291.406006 
	C383.517334,291.406006 353.187836,291.406006 322.529480,291.406006 
	C322.529480,261.121460 322.529480,230.909775 322.529480,200.303726 
	C323.762634,200.186661 325.014130,199.965469 326.265900,199.964066 
	C354.063721,199.933029 381.861572,199.911072 409.659363,199.948364 
	C411.555573,199.950912 414.403595,198.900558 414.111267,203.167877 
M353.041016,231.614700 
	C353.041016,241.342896 353.041016,251.071091 353.041016,260.703979 
	C363.479156,260.703979 373.353973,260.703979 383.185455,260.703979 
	C383.185455,250.616455 383.185455,240.890793 383.185455,230.811218 
	C373.108429,230.811218 363.361725,230.811218 353.041016,231.614700 
z"/>
<path fill="#3F3F3D" opacity="1.000000" stroke="none" 
	d="
M289.688904,414.043274 
	C259.624329,414.059357 230.031448,414.059357 200.161621,414.059357 
	C200.161621,383.389008 200.161621,353.156067 200.161621,322.566956 
	C230.513947,322.566956 260.867798,322.566956 291.537964,322.566956 
	C291.628601,323.852295 291.775726,324.971527 291.776459,326.090820 
	C291.794983,353.894989 291.823700,381.699249 291.733704,409.503113 
	C291.728821,411.012787 290.708282,412.519196 289.688904,414.043274 
M248.493896,383.369965 
	C252.576187,383.369965 256.658478,383.369965 260.802856,383.369965 
	C260.802856,372.863312 260.802856,363.113068 260.802856,353.250061 
	C250.653946,353.250061 240.752274,353.250061 230.863419,353.250061 
	C230.863419,363.313080 230.863419,373.071747 230.863419,383.370087 
	C236.597916,383.370087 242.046509,383.370087 248.493896,383.369965 
z"/>
<path fill="#3E3E3C" opacity="1.000000" stroke="none" 
	d="
M444.990112,229.577423 
	C444.838348,209.373093 444.838348,189.612442 444.838348,169.367279 
	C424.193481,169.367279 404.127960,169.367279 383.757263,169.367279 
	C383.757263,158.990982 383.757263,149.102829 383.757263,138.987518 
	C414.264496,138.987518 444.507446,138.987518 475.061096,138.987518 
	C475.061096,169.433121 475.061096,199.777237 475.061096,230.021072 
	C464.924683,230.021072 455.033264,230.021072 444.990112,229.577423 
z"/>
<path fill="#3E3E3C" opacity="1.000000" stroke="none" 
	d="
M184.011108,169.277954 
	C179.030273,169.277985 174.546799,169.277985 169.384094,169.277985 
	C169.384094,189.732849 169.384094,209.928894 169.384094,230.389755 
	C158.935760,230.389755 149.165070,230.389755 139.023071,230.389755 
	C139.023071,200.000961 139.023071,169.635193 139.023071,139.015961 
	C169.488571,139.015961 199.741440,139.015961 230.284271,139.015961 
	C230.284271,148.946518 230.284271,158.710403 230.284271,169.277924 
	C214.991180,169.277924 199.749817,169.277924 184.011108,169.277954 
z"/>
<path fill="#3E3E3C" opacity="1.000000" stroke="none" 
	d="
M437.999939,475.210876 
	C419.704132,475.210876 401.908295,475.210876 383.780670,475.210876 
	C383.780670,464.967682 383.780670,455.072693 383.780670,444.618805 
	C404.093201,444.618805 424.168091,444.618805 444.756836,444.618805 
	C444.756836,424.012604 444.756836,403.954590 444.756836,383.640015 
	C455.033234,383.640015 464.787354,383.640015 474.913513,383.640015 
	C474.913513,414.124268 474.913513,444.455078 474.913513,475.210846 
	C462.717651,475.210846 450.608795,475.210846 437.999939,475.210876 
z"/>
<path fill="#3E3E3C" opacity="1.000000" stroke="none" 
	d="
M169.211792,404.000214 
	C169.211807,417.644958 169.211807,430.789703 169.211807,444.471558 
	C189.558212,444.471558 209.620346,444.471558 230.123489,444.471558 
	C230.123489,454.867126 230.123489,464.734985 230.123489,474.927246 
	C199.888138,474.927246 169.663254,474.927246 139.075775,474.927246 
	C139.075775,444.598450 139.075775,414.243286 139.075775,383.624756 
	C148.979187,383.624756 158.741425,383.624756 169.211761,383.624756 
	C169.211761,390.323853 169.211761,396.912048 169.211792,404.000214 
z"/>
<path fill="#3E3E3C" opacity="1.000000" stroke="none" 
	d="
M352.927856,353.025452 
	C373.159027,353.025452 393.390198,353.025452 413.848785,353.025452 
	C413.848785,373.425964 413.848785,393.450439 413.848785,414.038696 
	C404.422028,414.038696 395.173401,414.038696 385.463745,413.628357 
	C384.608704,412.142548 384.214691,411.067108 383.820679,409.991638 
	C383.820679,401.424957 383.820679,392.858307 383.820679,383.792145 
	C381.006317,383.642609 378.926788,383.532104 376.360260,382.895325 
	C371.745697,380.052643 365.187134,380.464508 362.950043,383.180603 
	C361.903442,383.257477 360.856812,383.334351 359.373535,382.942017 
	C357.365662,380.286987 356.454010,380.878937 355.948761,383.182373 
	C355.102234,383.226593 354.255707,383.270844 353.094727,383.077301 
	C352.780304,382.839508 352.839172,382.883911 352.839172,382.883911 
	C352.872864,373.212128 352.906555,363.540375 352.956940,353.419922 
	C352.973602,352.971222 352.927856,353.025452 352.927856,353.025452 
z"/>
<path fill="#41413F" opacity="1.000000" stroke="none" 
	d="
M353.000732,352.948364 
	C342.936462,352.925476 332.845062,352.925476 322.476440,352.925476 
	C322.476440,342.653320 322.476440,332.774963 322.476440,322.540497 
	C332.453217,322.540497 342.327057,322.540497 352.952301,322.540497 
	C352.952301,332.329163 352.952301,342.208710 352.940063,352.556854 
	C352.927856,353.025452 352.973602,352.971222 353.000732,352.948364 
z"/>
<path fill="#41413F" opacity="1.000000" stroke="none" 
	d="
M352.758148,382.809998 
	C352.735992,393.048981 352.735992,403.317474 352.735992,413.846008 
	C342.602173,413.846008 332.696594,413.846008 322.484711,413.846008 
	C322.484711,403.786987 322.484711,393.903412 322.484711,383.331573 
	C332.499390,383.331573 342.270386,383.331573 352.440247,383.107727 
	C352.839172,382.883911 352.780304,382.839508 352.758148,382.809998 
z"/>
<path fill="#41413F" opacity="1.000000" stroke="none" 
	d="
M363.326752,383.320618 
	C365.187134,380.464508 371.745697,380.052643 375.962189,382.776794 
	C371.935242,383.276581 367.819336,383.368622 363.326752,383.320618 
z"/>
<path fill="#41413F" opacity="1.000000" stroke="none" 
	d="
M356.183716,383.317444 
	C356.454010,380.878937 357.365662,380.286987 358.993744,382.826447 
	C358.173279,383.270905 357.295959,383.361725 356.183716,383.317444 
z"/>
<path fill="#41413F" opacity="1.000000" stroke="none" 
	d="
M383.677246,410.320831 
	C384.214691,411.067108 384.608704,412.142548 385.003113,413.537170 
	C384.513641,412.787567 384.023712,411.718781 383.677246,410.320831 
z"/>
<path fill="#FEFEFE" opacity="1.000000" stroke="none" 
	d="
M230.560425,258.940857 
	C230.523209,249.364517 230.523209,240.283142 230.523209,230.914124 
	C240.802109,230.914124 250.531479,230.914124 260.656738,230.914124 
	C260.656738,240.703415 260.656738,250.550171 260.656738,260.958282 
	C251.035828,260.958282 241.312012,260.973450 231.588959,260.894196 
	C231.254593,260.891479 230.927902,259.943329 230.560425,258.940857 
z"/>
<path fill="#FEFEFE" opacity="1.000000" stroke="none" 
	d="
M353.328033,231.212952 
	C363.361725,230.811218 373.108429,230.811218 383.185455,230.811218 
	C383.185455,240.890793 383.185455,250.616455 383.185455,260.703979 
	C373.353973,260.703979 363.479156,260.703979 353.041016,260.703979 
	C353.041016,251.071091 353.041016,241.342896 353.328033,231.212952 
z"/>
<path fill="#FFFFFF" opacity="1.000000" stroke="none" 
	d="
M247.994507,383.370026 
	C242.046509,383.370087 236.597916,383.370087 230.863419,383.370087 
	C230.863419,373.071747 230.863419,363.313080 230.863419,353.250061 
	C240.752274,353.250061 250.653946,353.250061 260.802856,353.250061 
	C260.802856,363.113068 260.802856,372.863312 260.802856,383.369965 
	C256.658478,383.369965 252.576187,383.369965 247.994507,383.370026 
z"/>
</svg>